<?xml version="1.0" encoding="utf-8"?>
<!-- Generator: Adobe Illustrator 24.2.3, SVG Export Plug-In . SVG Version: 6.00 Build 0)  -->
<svg version="1.1" id="레이어_1" xmlns="http://www.w3.org/2000/svg" xmlns:xlink="http://www.w3.org/1999/xlink" x="0px"
	 y="0px" viewBox="0 0 24 24" style="enable-background:new 0 0 24 24;" xml:space="preserve">
<style type="text/css">
	.st0{fill:#111111;}
</style>
<path class="st0" d="M16,7c-0.6,0-1-0.4-1-1V3H9v3c0,0.6-0.4,1-1,1S7,6.6,7,6V3c0-1.1,0.9-2,2-2h6c1.1,0,2,0.9,2,2v3
	C17,6.6,16.6,7,16,7z"/>
<path class="st0" d="M20,5H4C2.9,5,2,5.9,2,7v13c0,1.7,1.3,3,3,3h14c1.7,0,3-1.3,3-3V7C22,5.9,21.1,5,20,5z M20,20c0,0.6-0.4,1-1,1
	H5c-0.6,0-1-0.4-1-1V7h16V20z"/>
</svg>
