<?xml version="1.0" encoding="utf-8"?>
<!-- Generator: Adobe Illustrator 16.0.0, SVG Export Plug-In . SVG Version: 6.00 Build 0)  -->
<!DOCTYPE svg PUBLIC "-//W3C//DTD SVG 1.1//EN" "http://www.w3.org/Graphics/SVG/1.1/DTD/svg11.dtd">
<svg version="1.1" id="Layer_1" focusable="false" xmlns="http://www.w3.org/2000/svg" xmlns:xlink="http://www.w3.org/1999/xlink"
	 x="0px" y="0px" width="18px" height="18px" viewBox="0 13 18 18" enable-background="new 0 13 18 18" xml:space="preserve">
<path fill="#FFFFFF" d="M0.643,19h16.713C17.715,19,18,18.801,18,18.556v-1.111C18,17.199,17.715,17,17.355,17H0.643
	C0.288,17,0,17.199,0,17.444v1.111C0,18.801,0.288,19,0.643,19z M0.643,27h16.714C17.713,27,18,26.802,18,26.556v-1.111
	C18,25.198,17.713,25,17.357,25H0.643C0.288,25,0,25.198,0,25.444v1.111C0,26.802,0.288,27,0.643,27z"/>
</svg>
