<?xml version="1.0" encoding="utf-8"?>
<!-- Generator: Adobe Illustrator 16.0.0, SVG Export Plug-In . SVG Version: 6.00 Build 0)  -->
<!DOCTYPE svg PUBLIC "-//W3C//DTD SVG 1.1//EN" "http://www.w3.org/Graphics/SVG/1.1/DTD/svg11.dtd">
<svg version="1.1" id="Layer_1" focusable="false" xmlns="http://www.w3.org/2000/svg" xmlns:xlink="http://www.w3.org/1999/xlink"
	 x="0px" y="0px" width="18px" height="18px" viewBox="0 0 18 18" enable-background="new 0 0 18 18" xml:space="preserve">
<path fill="#FFFFFF" d="M2.383,3.797l11.818,11.818c0.254,0.254,0.597,0.315,0.77,0.143l0.785-0.786
	c0.175-0.174,0.113-0.517-0.141-0.771L3.797,2.383C3.546,2.132,3.202,2.069,3.029,2.242L2.243,3.028
	C2.069,3.202,2.132,3.546,2.383,3.797z M3.798,15.616L15.616,3.798c0.252-0.251,0.314-0.594,0.142-0.768l-0.786-0.786
	c-0.175-0.174-0.518-0.112-0.77,0.14L2.384,14.202c-0.251,0.252-0.314,0.596-0.141,0.77l0.786,0.785
	C3.203,15.931,3.547,15.868,3.798,15.616z"/>
</svg>
