<?xml version="1.0" encoding="utf-8"?>
<!-- Generator: Adobe Illustrator 16.0.0, SVG Export Plug-In . SVG Version: 6.00 Build 0)  -->
<!DOCTYPE svg PUBLIC "-//W3C//DTD SVG 1.1//EN" "http://www.w3.org/Graphics/SVG/1.1/DTD/svg11.dtd">
<svg version="1.1" id="Layer_1" focusable="false" xmlns="http://www.w3.org/2000/svg" xmlns:xlink="http://www.w3.org/1999/xlink"
	 x="0px" y="0px" width="18px" height="18px" viewBox="0 13 18 18" enable-background="new 0 13 18 18" xml:space="preserve">
<path fill="#FFFFFF" d="M0.643,17.018h16.714c0.355,0,0.643-0.288,0.643-0.643v-1.607c0-0.355-0.287-0.643-0.643-0.643H0.643
	C0.288,14.125,0,14.413,0,14.768v1.607C0,16.73,0.288,17.018,0.643,17.018z M0.643,23.446h16.714c0.355,0,0.643-0.288,0.643-0.643
	v-1.607c0-0.355-0.287-0.643-0.643-0.643H0.643C0.288,20.554,0,20.841,0,21.196v1.607C0,23.158,0.288,23.446,0.643,23.446z
	 M0.643,29.875h16.714c0.355,0,0.643-0.287,0.643-0.643v-1.607c0-0.355-0.287-0.643-0.643-0.643H0.643
	C0.288,26.982,0,27.27,0,27.625v1.607C0,29.588,0.288,29.875,0.643,29.875z"/>
</svg>
