<?xml version="1.0" encoding="utf-8"?>
<!-- Generator: Adobe Illustrator 24.2.3, SVG Export Plug-In . SVG Version: 6.00 Build 0)  -->
<svg version="1.1" id="레이어_1" xmlns="http://www.w3.org/2000/svg" xmlns:xlink="http://www.w3.org/1999/xlink" x="0px"
	 y="0px" viewBox="0 0 30 30" style="enable-background:new 0 0 30 30;" xml:space="preserve">
<style type="text/css">
	.st0{fill:#111111;}
</style>
<path class="st0" d="M27.1,25.4l-4.6-4.6c3.9-4.8,3.1-11.9-1.7-15.8S8.8,1.8,4.9,6.7S1.8,18.6,6.7,22.5c4.1,3.3,10,3.3,14.1,0
	l4.6,4.6c0.5,0.5,1.3,0.5,1.8,0c0,0,0,0,0,0C27.6,26.6,27.6,25.8,27.1,25.4z M13.8,22.5c-4.8,0-8.8-3.9-8.8-8.8S8.9,5,13.8,5
	s8.8,3.9,8.8,8.8S18.6,22.5,13.8,22.5z"/>
</svg>
